<svg width="24" height="24" viewBox="0 0 24 24" fill="none" xmlns="http://www.w3.org/2000/svg">
<path d="M0.823242 1.42676L3.33658 1.86176L4.5002 15.725C4.5449 16.2705 4.79364 16.7791 5.19679 17.1493C5.59993 17.5196 6.12785 17.7242 6.6752 17.7223H19.8581C20.3822 17.7229 20.8889 17.5343 21.285 17.191C21.681 16.8478 21.9398 16.3731 22.0138 15.8543L23.1617 7.93001C23.1923 7.71926 23.1811 7.50455 23.1286 7.29816C23.0762 7.09176 22.9836 6.89772 22.8561 6.72714C22.7286 6.55656 22.5687 6.41279 22.3856 6.30403C22.2025 6.19528 21.9998 6.12369 21.789 6.09334C21.7117 6.08488 3.74016 6.07884 3.74016 6.07884" stroke="white" stroke-width="1.5" stroke-linecap="round" stroke-linejoin="round"/>
<path d="M14.5684 10.5439H17.9191" stroke="white" stroke-width="1.5" stroke-linecap="round" stroke-linejoin="round"/>
<path fill-rule="evenodd" clip-rule="evenodd" d="M6.14478 21.9117C6.23339 21.9079 6.32186 21.9221 6.40485 21.9534C6.48784 21.9847 6.56365 22.0324 6.62769 22.0938C6.69174 22.1552 6.7427 22.2288 6.77752 22.3104C6.81234 22.392 6.83029 22.4798 6.83029 22.5685C6.83029 22.6572 6.81234 22.7449 6.77752 22.8265C6.7427 22.9081 6.69174 22.9818 6.62769 23.0431C6.56365 23.1045 6.48784 23.1523 6.40485 23.1835C6.32186 23.2148 6.23339 23.229 6.14478 23.2252C5.97548 23.2179 5.81552 23.1456 5.6983 23.0232C5.58107 22.9008 5.51563 22.7379 5.51562 22.5685C5.51563 22.399 5.58107 22.2361 5.6983 22.1137C5.81552 21.9914 5.97548 21.919 6.14478 21.9117Z" fill="#272343" stroke="white" stroke-width="1.5" stroke-linecap="round" stroke-linejoin="round"/>
<path fill-rule="evenodd" clip-rule="evenodd" d="M19.7757 21.9121C19.9504 21.9121 20.1179 21.9815 20.2414 22.105C20.3649 22.2285 20.4343 22.396 20.4343 22.5706C20.4343 22.7453 20.3649 22.9128 20.2414 23.0363C20.1179 23.1598 19.9504 23.2292 19.7757 23.2292C19.6011 23.2292 19.4336 23.1598 19.3101 23.0363C19.1866 22.9128 19.1172 22.7453 19.1172 22.5706C19.1172 22.396 19.1866 22.2285 19.3101 22.105C19.4336 21.9815 19.6011 21.9121 19.7757 21.9121Z" fill="#272343" stroke="white" stroke-width="1.5" stroke-linecap="round" stroke-linejoin="round"/>
</svg>
