<svg width="25" height="18" viewBox="0 0 25 18" fill="none" xmlns="http://www.w3.org/2000/svg">
<g clip-path="url(#clip0_1_3798)">
<path d="M19.9388 15.2176L17.1563 12.4576C18.2364 11.1109 18.7594 9.40152 18.6179 7.68103C18.4764 5.96053 17.6811 4.35964 16.3954 3.20753C15.1098 2.05543 13.4317 1.43968 11.706 1.4869C9.98033 1.53412 8.33834 2.24072 7.11766 3.46141C5.89697 4.68209 5.19037 6.32408 5.14315 8.04974C5.09593 9.77541 5.71168 11.4536 6.86378 12.7392C8.01589 14.0248 9.61678 14.8201 11.3373 14.9617C13.0578 15.1032 14.7671 14.5801 16.1138 13.5001L18.8738 16.2601C18.9435 16.3303 19.0265 16.3861 19.1179 16.4242C19.2093 16.4623 19.3073 16.4819 19.4063 16.4819C19.5053 16.4819 19.6033 16.4623 19.6947 16.4242C19.7861 16.3861 19.8691 16.3303 19.9388 16.2601C20.074 16.1202 20.1495 15.9333 20.1495 15.7388C20.1495 15.5443 20.074 15.3574 19.9388 15.2176ZM11.9063 13.5001C10.8679 13.5001 9.85291 13.1921 8.98956 12.6153C8.1262 12.0384 7.45329 11.2185 7.05593 10.2591C6.65857 9.29983 6.55461 8.24423 6.75718 7.22583C6.95975 6.20743 7.45976 5.27197 8.19399 4.53774C8.92822 3.80351 9.86368 3.3035 10.8821 3.10093C11.9005 2.89836 12.9561 3.00232 13.9154 3.39968C14.8747 3.79704 15.6946 4.46995 16.2715 5.33331C16.8484 6.19666 17.1563 7.2117 17.1563 8.25005C17.1563 9.64244 16.6032 10.9778 15.6186 11.9624C14.634 12.9469 13.2987 13.5001 11.9063 13.5001Z" fill="#757575"/>
</g>
<defs>
<clipPath id="clip0_1_3798">
<rect width="24" height="18" fill="white" transform="translate(0.65625)"/>
</clipPath>
</defs>
</svg>
