<svg width="24" height="20" viewBox="0 0 24 20" fill="none" xmlns="http://www.w3.org/2000/svg">
<path d="M22.9538 8.12293L20.3077 0.615234H3.69228L1.10767 7.93831V19.6306H22.9538V8.12293ZM4.3692 1.53831H19.6307L21.7846 7.63062H2.21536L4.3692 1.53831ZM21.9692 18.7691H2.03074V8.5537H22.0307L21.9692 18.7691Z" fill="#111111" stroke="#111111" stroke-width="0.692308" stroke-linejoin="round"/>
<path d="M15.6902 11.2609L15.5976 11.1619C15.3364 10.8826 14.8983 10.8679 14.619 11.129C14.6158 11.1321 14.6125 11.1352 14.6093 11.1383L10.65 14.9876L9.39079 13.7633C9.11665 13.4968 8.67835 13.503 8.41182 13.7771C8.40869 13.7803 8.40559 13.7836 8.40252 13.7869L8.30992 13.8859C8.05236 14.1613 8.06263 14.5922 8.33301 14.8551L10.1674 16.6386C10.4361 16.8998 10.8639 16.8998 11.1326 16.6386L15.6671 12.2301C15.9375 11.9672 15.9477 11.5363 15.6902 11.2609Z" fill="#111111"/>
<path d="M12.4614 1.69238H11.5383V7.23084H12.4614V1.69238Z" fill="#D8D8D8" stroke="black" stroke-width="0.923077"/>
</svg>
